<svg width="1280" height="640" viewBox="0 0 1280 640" fill="none" xmlns="http://www.w3.org/2000/svg">
  <defs>
    <linearGradient id="bg" x1="96" y1="64" x2="1184" y2="576" gradientUnits="userSpaceOnUse">
      <stop stop-color="#0F172A"/>
      <stop offset="0.5" stop-color="#0B3B5A"/>
      <stop offset="1" stop-color="#14532D"/>
    </linearGradient>
    <linearGradient id="accent" x1="214" y1="170" x2="1020" y2="448" gradientUnits="userSpaceOnUse">
      <stop stop-color="#38BDF8"/>
      <stop offset="1" stop-color="#22C55E"/>
    </linearGradient>
    <filter id="blur" x="0" y="0" width="1280" height="640" filterUnits="userSpaceOnUse" color-interpolation-filters="sRGB">
      <feGaussianBlur stdDeviation="40"/>
    </filter>
  </defs>

  <rect width="1280" height="640" rx="32" fill="url(#bg)"/>

  <g opacity="0.25" filter="url(#blur)">
    <circle cx="252" cy="180" r="112" fill="#38BDF8"/>
    <circle cx="1040" cy="150" r="140" fill="#22C55E"/>
    <circle cx="980" cy="486" r="120" fill="#F59E0B"/>
  </g>

  <rect x="84" y="84" width="1112" height="472" rx="28" fill="#0B1220" fill-opacity="0.42" stroke="#94A3B8" stroke-opacity="0.2"/>

  <rect x="126" y="126" width="168" height="40" rx="20" fill="#E2F3FF" fill-opacity="0.14"/>
  <text x="210" y="152" text-anchor="middle" fill="#D9F4FF" font-family="Segoe UI, Arial, sans-serif" font-size="20" font-weight="700" letter-spacing="2">ASSISTIVE VISION</text>

  <text x="126" y="250" fill="#F8FAFC" font-family="Segoe UI, Arial, sans-serif" font-size="72" font-weight="800">Smart Walking Vision</text>
  <text x="126" y="306" fill="#BFDBFE" font-family="Segoe UI, Arial, sans-serif" font-size="28" font-weight="500">Real-time object awareness, voice guidance, and ESP32-CAM optimized scene monitoring.</text>

  <g>
    <rect x="126" y="356" width="192" height="62" rx="18" fill="url(#accent)"/>
    <text x="222" y="395" text-anchor="middle" fill="#02131C" font-family="Segoe UI, Arial, sans-serif" font-size="24" font-weight="800">Hybrid Detection</text>

    <rect x="338" y="356" width="182" height="62" rx="18" fill="#E2F3FF" fill-opacity="0.1" stroke="#E2E8F0" stroke-opacity="0.22"/>
    <text x="429" y="395" text-anchor="middle" fill="#E5F4FF" font-family="Segoe UI, Arial, sans-serif" font-size="24" font-weight="700">Voice Alerts</text>

    <rect x="540" y="356" width="214" height="62" rx="18" fill="#E2F3FF" fill-opacity="0.1" stroke="#E2E8F0" stroke-opacity="0.22"/>
    <text x="647" y="395" text-anchor="middle" fill="#E5F4FF" font-family="Segoe UI, Arial, sans-serif" font-size="24" font-weight="700">ESP32-CAM Ready</text>
  </g>

  <g opacity="0.92">
    <rect x="864" y="198" width="238" height="178" rx="24" fill="#08111C" stroke="#38BDF8" stroke-opacity="0.4"/>
    <rect x="888" y="222" width="190" height="114" rx="18" fill="#0F1B2D" stroke="#38BDF8" stroke-opacity="0.35"/>
    <circle cx="983" cy="279" r="44" stroke="#22C55E" stroke-width="4" stroke-dasharray="8 10"/>
    <path d="M932 310L952 290L972 300L1002 266L1036 288" stroke="#38BDF8" stroke-width="5" stroke-linecap="round" stroke-linejoin="round"/>
    <rect x="926" y="360" width="114" height="18" rx="9" fill="#22C55E" fill-opacity="0.28"/>
    <text x="983" y="374" text-anchor="middle" fill="#DCFCE7" font-family="Segoe UI, Arial, sans-serif" font-size="15" font-weight="700">PERSON DETECTED</text>
  </g>

  <text x="126" y="486" fill="#CBD5E1" font-family="Segoe UI, Arial, sans-serif" font-size="22" font-weight="500">YOLOv8 ONNX + YOLO-World + speech + temporal safety features</text>
</svg>