<svg width="1200" height="1200" viewBox="0 0 1200 1200" fill="none" xmlns="http://www.w3.org/2000/svg">
  <defs>
    <linearGradient id="bg" x1="120" y1="90" x2="1080" y2="1110" gradientUnits="userSpaceOnUse">
      <stop stop-color="#081223"/>
      <stop offset="0.5" stop-color="#0B3B5A"/>
      <stop offset="1" stop-color="#14532D"/>
    </linearGradient>
    <linearGradient id="accent" x1="220" y1="380" x2="910" y2="820" gradientUnits="userSpaceOnUse">
      <stop stop-color="#38BDF8"/>
      <stop offset="1" stop-color="#22C55E"/>
    </linearGradient>
  </defs>

  <rect width="1200" height="1200" rx="40" fill="url(#bg)"/>

  <circle cx="250" cy="220" r="120" fill="#38BDF8" fill-opacity="0.18"/>
  <circle cx="970" cy="250" r="160" fill="#22C55E" fill-opacity="0.16"/>
  <circle cx="960" cy="930" r="130" fill="#F59E0B" fill-opacity="0.14"/>

  <rect x="110" y="110" width="980" height="980" rx="34" fill="#09111D" fill-opacity="0.5" stroke="#94A3B8" stroke-opacity="0.16"/>

  <rect x="160" y="166" width="230" height="54" rx="27" fill="#E2F3FF" fill-opacity="0.12"/>
  <text x="275" y="201" text-anchor="middle" fill="#D9F4FF" font-family="Segoe UI, Arial, sans-serif" font-size="24" font-weight="700" letter-spacing="2">ASSISTIVE VISION</text>

  <text x="160" y="350" fill="#F8FAFC" font-family="Segoe UI, Arial, sans-serif" font-size="88" font-weight="800">Smart Walking</text>
  <text x="160" y="444" fill="#F8FAFC" font-family="Segoe UI, Arial, sans-serif" font-size="88" font-weight="800">Vision</text>
  <text x="160" y="520" fill="#BFDBFE" font-family="Segoe UI, Arial, sans-serif" font-size="34" font-weight="500">Real-time object awareness, voice guidance, and ESP32-CAM optimized monitoring.</text>

  <g>
    <rect x="160" y="620" width="252" height="72" rx="20" fill="url(#accent)"/>
    <text x="286" y="665" text-anchor="middle" fill="#02131C" font-family="Segoe UI, Arial, sans-serif" font-size="28" font-weight="800">Hybrid Detection</text>

    <rect x="432" y="620" width="210" height="72" rx="20" fill="#E2F3FF" fill-opacity="0.1" stroke="#E2E8F0" stroke-opacity="0.22"/>
    <text x="537" y="665" text-anchor="middle" fill="#E5F4FF" font-family="Segoe UI, Arial, sans-serif" font-size="28" font-weight="700">Voice Alerts</text>
  </g>

  <g opacity="0.95">
    <rect x="716" y="548" width="260" height="264" rx="28" fill="#08111C" stroke="#38BDF8" stroke-opacity="0.42"/>
    <rect x="742" y="580" width="208" height="146" rx="20" fill="#0F1B2D" stroke="#38BDF8" stroke-opacity="0.35"/>
    <circle cx="846" cy="654" r="52" stroke="#22C55E" stroke-width="5" stroke-dasharray="9 11"/>
    <path d="M786 696L812 668L836 680L873 636L914 664" stroke="#38BDF8" stroke-width="6" stroke-linecap="round" stroke-linejoin="round"/>
    <rect x="772" y="756" width="148" height="24" rx="12" fill="#22C55E" fill-opacity="0.28"/>
    <text x="846" y="773" text-anchor="middle" fill="#DCFCE7" font-family="Segoe UI, Arial, sans-serif" font-size="18" font-weight="700">PERSON DETECTED</text>
  </g>

  <text x="160" y="838" fill="#CBD5E1" font-family="Segoe UI, Arial, sans-serif" font-size="30" font-weight="500">YOLOv8 ONNX + YOLO-World + temporal safety + speech</text>
</svg>